<svg width="48" height="48" xmlns="http://www.w3.org/2000/svg">

 <g>
  <title>Layer 1</title>
  <path fill="#333333" id="svg_1" d="m14,36c-2.21,0 -3.98,1.79 -3.98,4s1.77,4 3.98,4s4,-1.79 4,-4s-1.79,-4 -4,-4zm-12,-32l0,4l4,0l7.19,15.17l-2.7,4.9c-0.31,0.58 -0.49,1.23 -0.49,1.93c0,2.21 1.79,4 4,4l24,0l0,-4l-23.15,0c-0.28,0 -0.5,-0.22 -0.5,-0.5c0,-0.09 0.02,-0.17 0.06,-0.24l1.79,-3.26l14.9,0c1.5,0 2.81,-0.83 3.5,-2.06l7.15,-12.98c0.16,-0.28 0.25,-0.61 0.25,-0.96c0,-1.11 -0.9,-2 -2,-2l-29.57,0l-1.9,-4l-6.53,0zm32,32c-2.21,0 -3.98,1.79 -3.98,4s1.77,4 3.98,4s4,-1.79 4,-4s-1.79,-4 -4,-4z"/>
 </g>
</svg>