<svg
  xmlns="http://www.w3.org/2000/svg"
  data-name="Layer 1"
  width="150"
  height="150"
  style=""
><rect
    id="backgroundrect"
    width="100%"
    height="100%"
    x="0"
    y="0"
    fill="none"
    stroke="none"
  /><defs><style>.cls-1{fill:#13818d;}.cls-2{fill:#fff;}</style></defs><title
  /><g class="currentLayer" style=""><title>Layer 1</title><path
      fill="#fd5800"
      fill-opacity="1"
      stroke="none"
      stroke-opacity="1"
      stroke-width="1"
      stroke-dasharray="none"
      stroke-linejoin="miter"
      stroke-linecap="butt"
      stroke-dashoffset=""
      fill-rule="nonzero"
      opacity="1"
      marker-start=""
      marker-mid=""
      marker-end=""
      d="M7.285714387893677,74.70408177375793 C7.285714387893677,37.41126409419992 37.492896708335664,7.204081773757935 74.78571438789368,7.204081773757935 C112.0785320674517,7.204081773757935 142.28571438789368,37.41126409419992 142.28571438789368,74.70408177375793 C142.28571438789368,111.99689945331596 112.0785320674517,142.20408177375793 74.78571438789368,142.20408177375793 C37.492896708335664,142.20408177375793 7.285714387893677,111.99689945331596 7.285714387893677,74.70408177375793 z"
      id="svg_3"
      class="selected"
    /><path
      class="cls-2"
      d="M101.87,51.68H93.58a17.83,17.83,0,0,0-35.65,0H49.64L44.42,108.1h62.67ZM75.76,35.89A15.81,15.81,0,0,1,91.55,51.68H60A15.81,15.81,0,0,1,75.76,35.89Zm-16.81,23a2.32,2.32,0,1,1,2.32-2.31A2.31,2.31,0,0,1,58.95,58.89Zm33.62,0a2.32,2.32,0,1,1,2.32-2.31A2.32,2.32,0,0,1,92.57,58.89Z"
      id="svg_2"
    /><path
      fill="#d5d50b"
      fill-opacity="1"
      stroke="none"
      stroke-opacity="1"
      stroke-width="1"
      stroke-dasharray="none"
      stroke-linejoin="miter"
      stroke-linecap="butt"
      stroke-dashoffset=""
      fill-rule="nonzero"
      opacity="1"
      marker-start=""
      marker-mid=""
      marker-end=""
      d="M106,121 C106,121 108.23756906077348,121 111,121 C113.76243093922652,121 116,121 116,121 C116,121 113.76243093922652,121 111,121 C108.23756906077348,121 106,121 106,121 Z"
      id="svg_7"
    /></g></svg>
