<?xml version="1.0" ?>
<svg
  data-name="Layer 1"
  id="Layer_1"
  viewBox="0 0 150 150"
  xmlns="http://www.w3.org/2000/svg"
><defs><style>.cls-1{fill:#13818d;}.cls-2{fill:#fff;}</style></defs><title
  /><circle class="cls-1" cx="75" cy="75" r="65" /><path
    class="cls-2"
    d="M101.87,51.68H93.58a17.83,17.83,0,0,0-35.65,0H49.64L44.42,108.1h62.67ZM75.76,35.89A15.81,15.81,0,0,1,91.55,51.68H60A15.81,15.81,0,0,1,75.76,35.89Zm-16.81,23a2.32,2.32,0,1,1,2.32-2.31A2.31,2.31,0,0,1,58.95,58.89Zm33.62,0a2.32,2.32,0,1,1,2.32-2.31A2.32,2.32,0,0,1,92.57,58.89Z"
  /></svg>
